#!OML:ASF I:\Actors\actors\Patient Classification 1\Patient 1\Session 1\Subject1.ASF
:FULLY-SPECIFIED
:DEGREES
307
root 0.711519 17.5492 8.84888 8.52659 -2.84232 -8.56309
lowerback 1.01376 0.584604 5.47215
upperback -7.42515 1.20951 1.81879
thorax -8.31613 0.293404 -1.23727
lowerneck -9.27027 -3.41942 -2.51127
upperneck 10.3231 -5.47397 9.80402
head 4.97172 -2.18195 3.0647
rclavicle -1.89342e-014 -1.55052e-014
rhumerus -46.7558 25.2451 -94.7275
rradius 65.7717
rwrist 22.2746
rhand 4.34149 -24.0532
rfingers 7.12502
rthumb 29.7417 -51.687
lclavicle -1.89342e-014 -1.55052e-014
lhumerus -50.0957 -11.0397 97.0024
lradius 62.4433
lwrist -6.29655
lhand -19.5869 -20.248
lfingers 7.12502
lthumb 6.73861 9.62476
rfemur -9.01351 22.7728 24.0397
rtibia 8.83836
rfoot -12.4125 -20.8366
rtoes -0.102308
lfemur -0.942794 -29.8666 -8.99143
ltibia -0.289673
lfoot -11.9496 40.1986
ltoes -2.1277
308
root 0.712178 17.5398 8.87729 8.21017 -3.00945 -8.4893
lowerback 0.68758 0.659832 5.52736
upperback -7.51582 1.2874 1.74198
thorax -8.21664 0.325985 -1.35069
lowerneck -9.11321 -3.42415 -2.31966
upperneck 10.5309 -5.4901 9.52351
head 4.99647 -2.19796 2.94652
rclavicle 5.96354e-015 1.51076e-014
rhumerus -48.2101 23.6016 -94.4713
rradius 66.4553
rwrist 22.1056
rhand 6.13171 -23.846
rfingers 7.12502
rthumb 31.4488 -51.161
lclavicle 5.96354e-015 1.51076e-014
lhumerus -51.122 -10.3286 96.7232
lradius 62.9287
lwrist -6.16721
lhand -20.1071 -20.1012
lfingers 7.12502
lthumb 6.23638 9.78701
rfemur -8.62546 22.5649 24.1136
rtibia 8.97374
rfoot -12.4723 -20.483
rtoes -0.146371
lfemur -0.309144 -29.9012 -9.4673
ltibia -0.317102
lfoot -12.3133 40.3035
ltoes -1.78101
309
root 0.714987 17.5254 8.90076 8.12187 -3.28181 -8.53091
lowerback 0.255393 0.808564 5.73001
upperback -7.68523 1.46587 1.65924
thorax -8.1332 0.396304 -1.55687
lowerneck -9.00693 -3.48428 -2.43005
upperneck 10.805 -5.59354 9.61652
head 5.07473 -2.24219 2.98756
rclavicle 8.89561e-015 -2.22639e-014
rhumerus -49.6461 21.622 -94.0835
rradius 67.2915
rwrist 22.1499
rhand 5.27001 -24.221
rfingers 7.12502
rthumb 30.6275 -51.6928
lclavicle 8.89561e-015 -2.22639e-014
lhumerus -51.9945 -9.84976 96.4713
lradius 63.3434
lwrist -5.92601
lhand -20.4875 -19.9724
lfingers 7.12502
lthumb 5.86916 9.92629
rfemur -8.60811 22.258 24.1842
rtibia 9.21818
rfoot -12.4433 -19.9044
rtoes -0.395512
lfemur 0.0605207 -29.8427 -9.66858
ltibia -0.362698
lfoot -12.6079 40.4683
ltoes -1.47523
310
root 0.7166 17.5143 8.92865 7.91477 -3.4315 -8.55381
lowerback -0.111442 0.900842 5.88394
upperback -7.81927 1.57015 1.6032
thorax -8.05488 0.434922 -1.70222
lowerneck -9.06841 -3.42396 -2.56686
upperneck 11.4824 -5.57315 9.76298
head 5.3007 -2.20682 3.05817
rclavicle -2.03754e-015 -4.53229e-014
rhumerus -51.0894 20.0068 -93.8462
rradius 67.9015
rwrist 22.8984
rhand 6.25466 -24.6279
rfingers 7.12502
rthumb 31.5659 -51.9199
lclavicle -2.03754e-015 -4.53229e-014
lhumerus -52.7156 -9.48763 96.2396
lradius 63.6743
lwrist -5.60282
lhand -20.5188 -19.7183
lfingers 7.12502
lthumb 5.8389 10.1813
rfemur -8.30671 22.1026 24.326
rtibia 9.26941
rfoot -12.4037 -19.6119
rtoes -0.747852
lfemur 0.550622 -29.7913 -9.92938
ltibia -0.432564
lfoot -12.639 40.5233
ltoes -1.5747
311
root 0.715417 17.5087 8.96007 7.53409 -3.45176 -8.53049
lowerback -0.371753 0.913131 5.91612
upperback -7.88217 1.5696 1.59807
thorax -7.97101 0.43356 -1.72082
lowerneck -9.0286 -3.54522 -2.67048
upperneck 11.7264 -5.72713 9.62178
head 5.37746 -2.28995 3.01954
rclavicle -5.91384e-015 9.93923e-015
rhumerus -52.4173 18.9359 -93.7039
rradius 68.2442
rwrist 22.531
rhand 3.23119 -24.8892
rfingers 7.12502
rthumb 28.6815 -52.7073
lclavicle -5.91384e-015 9.93923e-015
lhumerus -53.3681 -9.16332 96.0492
lradius 63.981
lwrist -5.36373
lhand -20.3604 -19.5671
lfingers 7.12502
lthumb 5.99183 10.3281
rfemur -7.68068 22.0985 24.5376
rtibia 9.1888
rfoot -12.4083 -19.6265
rtoes -0.878413
lfemur 1.22731 -29.8131 -10.3147
ltibia -0.509661
lfoot -12.7244 40.5083
ltoes -1.71944
312
root 0.71278 17.5028 8.99057 7.16996 -3.44886 -8.45025
lowerback -0.603913 0.923539 5.86317
upperback -7.97631 1.56552 1.57013
thorax -7.93843 0.433448 -1.71653
lowerneck -9.12756 -3.58763 -2.61113
upperneck 12.3286 -5.82074 9.43016
head 5.57964 -2.32564 2.94157
rclavicle 4.32357e-015 2.42517e-014
rhumerus -53.5667 17.7652 -93.2664
rradius 68.7133
rwrist 20.1981
rhand 3.49472 -25.1028
rfingers 7.12502
rthumb 28.9332 -52.8781
lclavicle 4.32357e-015 2.42517e-014
lhumerus -54.1463 -8.99515 95.9148
lradius 64.4044
lwrist -5.09819
lhand -20.2897 -19.3909
lfingers 7.12502
lthumb 6.0601 10.5024
rfemur -7.08247 22.027 24.6693
rtibia 9.10754
rfoot -12.4409 -19.6029
rtoes -0.872681
lfemur 1.84728 -29.7846 -10.7262
ltibia -0.557034
lfoot -12.8935 40.3911
ltoes -1.53372
313
root 0.709536 17.4968 9.01989 6.87118 -3.41307 -8.39269
lowerback -0.839793 0.945611 5.84424
upperback -8.10373 1.57906 1.52711
thorax -7.93838 0.437714 -1.74802
lowerneck -9.0293 -3.72638 -2.7416
upperneck 12.5436 -6.00786 9.40253
head 5.64412 -2.42163 2.94076
rclavicle 5.96354e-015 -3.81667e-014
rhumerus -54.8166 16.3364 -92.7757
rradius 69.483
rwrist 19.6798
rhand 5.1977 -26.368
rfingers 7.12502
rthumb 30.5585 -53.8527
lclavicle 5.96354e-015 -3.81667e-014
lhumerus -54.9949 -8.99539 95.8287
lradius 64.9635
lwrist -4.59954
lhand -20.2685 -19.1227
lfingers 7.12502
lthumb 6.08065 10.7701
rfemur -6.56801 21.9336 24.7923
rtibia 9.03445
rfoot -12.5312 -19.5575
rtoes -0.723184
lfemur 2.33031 -29.6427 -11.0249
ltibia -0.571607
lfoot -12.9128 40.1425
ltoes -1.36604
314
root 0.706109 17.4919 9.04856 6.59795 -3.38823 -8.47669
lowerback -1.07456 0.965783 5.96709
upperback -8.19834 1.59698 1.53927
thorax -7.90315 0.438088 -1.80021
lowerneck -9.11391 -3.65151 -2.76426
upperneck 13.0126 -5.92496 9.27847
head 5.79598 -2.37551 2.912
rclavicle -1.19271e-014 -4.37326e-015
rhumerus -56.0579 14.8237 -92.1859
rradius 70.4182
rwrist 19.3156
rhand 5.46012 -26.7827
rfingers 7.12502
rthumb 30.8087 -54.2204
lclavicle -1.19271e-014 -4.37326e-015
lhumerus -55.7953 -9.00874 95.7472
lradius 65.6469
lwrist -3.87603
lhand -20.1656 -18.8989
lfingers 7.12502
lthumb 6.17997 10.991
rfemur -6.08889 21.9306 25.0784
rtibia 8.99524
rfoot -12.6271 -19.5877
rtoes -0.490549
lfemur 2.79324 -29.5697 -11.1439
ltibia -0.583292
lfoot -12.9438 40.0121
ltoes -1.20783
315
root 0.703481 17.4867 9.07875 6.32716 -3.3866 -8.53007
lowerback -1.3585 0.976151 6.04818
upperback -8.25864 1.59456 1.56076
thorax -7.80377 0.43402 -1.81725
lowerneck -9.25587 -3.68445 -2.74747
upperneck 13.4778 -5.99421 9.15162
head 5.966 -2.40064 2.86214
rclavicle -1.09332e-014 1.07344e-014
rhumerus -57.3137 13.5177 -91.6414
rradius 71.4241
rwrist 18.7386
rhand 5.15426 -26.5903
rfingers 7.12502
rthumb 30.5171 -54.0827
lclavicle -1.09332e-014 1.07344e-014
lhumerus -56.6374 -8.99951 95.6526
lradius 66.5065
lwrist -3.10176
lhand -20.0749 -18.6305
lfingers 7.12502
lthumb 6.26753 11.2568
rfemur -5.60503 21.9427 25.3266
rtibia 8.92934
rfoot -12.6821 -19.6537
rtoes -0.53304
lfemur 3.29636 -29.617 -11.3475
ltibia -0.592862
lfoot -13.1647 40.0278
ltoes -0.824553
316
root 0.702852 17.481 9.10989 6.0941 -3.3894 -8.46234
lowerback -1.69653 0.975942 5.99569
upperback -8.32464 1.56806 1.55968
thorax -7.68158 0.42684 -1.78184
lowerneck -9.23036 -3.73504 -2.84521
upperneck 13.6117 -6.04548 9.05105
head 6.00608 -2.43509 2.84256
rclavicle -8.44835e-015 -4.37326e-015
rhumerus -58.5316 12.2697 -91.0049
rradius 72.492
rwrist 18.6424
rhand 5.67083 -26.4693
rfingers 7.12502
rthumb 31.0096 -53.8689
lclavicle -8.44835e-015 -4.37326e-015
lhumerus -57.5127 -9.00582 95.5833
lradius 67.4622
lwrist -2.31982
lhand -20.0086 -18.2504
lfingers 7.12502
lthumb 6.33147 11.6349
rfemur -5.18359 21.8608 25.3965
rtibia 8.8928
rfoot -12.7711 -19.625
rtoes -0.735403
lfemur 3.77967 -29.6498 -11.6995
ltibia -0.639523
lfoot -13.2779 40.0515
ltoes -0.739457
317
root 0.703248 17.477 9.13885 5.87519 -3.36611 -8.46988
lowerback -1.96037 0.964913 6.0305
upperback -8.41461 1.53776 1.57332
thorax -7.62928 0.409995 -1.78081
lowerneck -9.26478 -3.61983 -2.9616
upperneck 13.9654 -5.91138 9.12044
head 6.11972 -2.36062 2.89631
rclavicle 6.65929e-015 -9.54166e-015
rhumerus -59.7242 11.1085 -90.3765
rradius 74.0257
rwrist 16.4447
rhand 6.67461 -27.8729
rfingers 7.12502
rthumb 31.9659 -55.0857
lclavicle 6.65929e-015 -9.54166e-015
lhumerus -58.3906 -9.02111 95.531
lradius 68.4746
lwrist -1.54158
lhand -19.7318 -17.6763
lfingers 7.12502
lthumb 6.59871 12.2009
rfemur -4.82339 21.7479 25.5446
rtibia 8.96272
rfoot -12.9131 -19.5542
rtoes -0.762641
lfemur 4.25313 -29.6474 -11.9392
ltibia -0.742493
lfoot -13.0869 40.0518
ltoes -1.16889
318
root 0.704046 17.4736 9.1665 5.65869 -3.3426 -8.53916
lowerback -2.19151 0.938846 6.12483
upperback -8.50485 1.49251 1.60989
thorax -7.59795 0.381957 -1.78881
lowerneck -9.14137 -3.61974 -3.12942
upperneck 14.0398 -5.91308 9.2405
head 6.12987 -2.3631 2.96446
rclavicle -2.88238e-015 -4.29375e-014
rhumerus -61.03 10.2639 -90.0179
rradius 75.2574
rwrist 15.1774
rhand 6.4438 -28.6619
rfingers 7.12502
rthumb 31.7461 -55.9184
lclavicle -2.88238e-015 -4.29375e-014
lhumerus -59.2572 -8.97107 95.4182
lradius 69.534
lwrist -0.996605
lhand -19.3084 -17.0838
lfingers 7.12502
lthumb 7.00742 12.7802
rfemur -4.47991 21.671 25.7671
rtibia 9.03679
rfoot -13.0243 -19.4952
rtoes -0.729305
lfemur 4.74058 -29.6827 -12.1118
ltibia -0.862899
lfoot -13.0128 40.0976
ltoes -1.37653
319
root 0.705158 17.4692 9.19743 5.50985 -3.43515 -8.53122
lowerback -2.55731 0.940378 6.1123
upperback -8.56138 1.46799 1.64028
thorax -7.45039 0.374992 -1.74279
lowerneck -9.08973 -3.53179 -2.95402
upperneck 14.1942 -5.80245 9.05025
head 6.1514 -2.31172 2.88557
rclavicle -2.36554e-014 3.89618e-014
rhumerus -62.2412 9.6002 -89.6598
rradius 76.4516
rwrist 14.5866
rhand 6.84508 -29.232
rfingers 7.12502
rthumb 32.1282 -56.4121
lclavicle -2.36554e-014 3.89618e-014
lhumerus -60.0774 -8.91369 95.2768
lradius 70.6592
lwrist -0.624536
lhand -19.0723 -16.5395
lfingers 7.12502
lthumb 7.23537 13.3168
rfemur -4.18202 21.6604 25.8811
rtibia 9.04877
rfoot -13.0779 -19.3897
rtoes -0.889965
lfemur 5.24429 -29.7331 -12.3905
ltibia -1.03852
lfoot -13.3267 40.2462
ltoes -0.987298
320
root 0.705777 17.4676 9.22973 5.37873 -3.58156 -8.4661
lowerback -2.93427 0.957813 6.04109
upperback -8.60721 1.4608 1.64399
thorax -7.28333 0.380114 -1.69285
lowerneck -9.11214 -3.51889 -2.92548
upperneck 14.3175 -5.7881 8.97576
head 6.1901 -2.30512 2.85843
rclavicle 4.96962e-016 -2.34566e-014
rhumerus -63.3516 8.93686 -89.2009
rradius 77.7603
rwrist 14.2819
rhand 7.57367 -29.7667
rfingers 7.12502
rthumb 32.8216 -56.8043
lclavicle 4.96962e-016 -2.34566e-014
lhumerus -60.9396 -8.91097 95.1487
lradius 71.9353
lwrist -0.213236
lhand -18.9886 -15.9108
lfingers 7.12502
lthumb 7.31614 13.9427
rfemur -3.87655 21.6944 25.9372
rtibia 9.02831
rfoot -13.1077 -19.3025
rtoes -1.12627
lfemur 5.69938 -29.6228 -12.6912
ltibia -1.18743
lfoot -13.6084 40.2665
ltoes -0.739225
